<mxfile host="app.diagrams.net" agent="Mozilla/5.0 (Windows NT 10.0; Win64; x64) AppleWebKit/537.36 (KHTML, like Gecko) Chrome/140.0.0.0 Safari/537.36 Edg/140.0.0.0" version="28.2.5">
  <diagram name="Page-1" id="9d27QebGQuZVitYVLy8V">
    <mxGraphModel dx="1098" dy="606" grid="1" gridSize="10" guides="1" tooltips="1" connect="1" arrows="1" fold="1" page="1" pageScale="1" pageWidth="850" pageHeight="1100" math="0" shadow="0">
      <root>
        <mxCell id="0" />
        <mxCell id="1" parent="0" />
        <mxCell id="WOtBp9gE6pbvejZ6KBke-3" value="" style="edgeStyle=orthogonalEdgeStyle;rounded=0;orthogonalLoop=1;jettySize=auto;html=1;" edge="1" parent="1" source="WOtBp9gE6pbvejZ6KBke-1">
          <mxGeometry relative="1" as="geometry">
            <mxPoint x="425.5" y="110" as="targetPoint" />
          </mxGeometry>
        </mxCell>
        <mxCell id="WOtBp9gE6pbvejZ6KBke-1" value="Start: Tutor Logs in" style="rounded=0;whiteSpace=wrap;html=1;" vertex="1" parent="1">
          <mxGeometry x="365" y="20" width="120" height="60" as="geometry" />
        </mxCell>
        <mxCell id="WOtBp9gE6pbvejZ6KBke-5" value="" style="edgeStyle=orthogonalEdgeStyle;rounded=0;orthogonalLoop=1;jettySize=auto;html=1;exitX=0.5;exitY=1;exitDx=0;exitDy=0;" edge="1" parent="1" source="WOtBp9gE6pbvejZ6KBke-29" target="WOtBp9gE6pbvejZ6KBke-4">
          <mxGeometry relative="1" as="geometry">
            <mxPoint x="425.5" y="190" as="sourcePoint" />
          </mxGeometry>
        </mxCell>
        <mxCell id="WOtBp9gE6pbvejZ6KBke-7" value="" style="edgeStyle=orthogonalEdgeStyle;rounded=0;orthogonalLoop=1;jettySize=auto;html=1;" edge="1" parent="1" source="WOtBp9gE6pbvejZ6KBke-4" target="WOtBp9gE6pbvejZ6KBke-6">
          <mxGeometry relative="1" as="geometry" />
        </mxCell>
        <mxCell id="WOtBp9gE6pbvejZ6KBke-4" value="Composer interface Opens" style="whiteSpace=wrap;html=1;rounded=0;" vertex="1" parent="1">
          <mxGeometry x="365" y="220" width="120" height="60" as="geometry" />
        </mxCell>
        <mxCell id="WOtBp9gE6pbvejZ6KBke-27" value="" style="edgeStyle=orthogonalEdgeStyle;rounded=0;orthogonalLoop=1;jettySize=auto;html=1;" edge="1" parent="1" source="WOtBp9gE6pbvejZ6KBke-6" target="WOtBp9gE6pbvejZ6KBke-26">
          <mxGeometry relative="1" as="geometry" />
        </mxCell>
        <mxCell id="WOtBp9gE6pbvejZ6KBke-6" value="Tutor Defines Forum" style="whiteSpace=wrap;html=1;rounded=0;" vertex="1" parent="1">
          <mxGeometry x="365.5" y="310" width="120" height="60" as="geometry" />
        </mxCell>
        <mxCell id="WOtBp9gE6pbvejZ6KBke-13" value="" style="edgeStyle=orthogonalEdgeStyle;rounded=0;orthogonalLoop=1;jettySize=auto;html=1;exitX=0.5;exitY=1;exitDx=0;exitDy=0;" edge="1" parent="1" source="WOtBp9gE6pbvejZ6KBke-30" target="WOtBp9gE6pbvejZ6KBke-12">
          <mxGeometry relative="1" as="geometry">
            <mxPoint x="425" y="560" as="sourcePoint" />
          </mxGeometry>
        </mxCell>
        <mxCell id="WOtBp9gE6pbvejZ6KBke-15" value="" style="edgeStyle=orthogonalEdgeStyle;rounded=0;orthogonalLoop=1;jettySize=auto;html=1;" edge="1" parent="1" source="WOtBp9gE6pbvejZ6KBke-12" target="WOtBp9gE6pbvejZ6KBke-14">
          <mxGeometry relative="1" as="geometry" />
        </mxCell>
        <mxCell id="WOtBp9gE6pbvejZ6KBke-12" value="Validates Forum" style="whiteSpace=wrap;html=1;rounded=0;" vertex="1" parent="1">
          <mxGeometry x="365.5" y="580" width="120" height="60" as="geometry" />
        </mxCell>
        <mxCell id="WOtBp9gE6pbvejZ6KBke-17" value="No" style="edgeStyle=orthogonalEdgeStyle;rounded=0;orthogonalLoop=1;jettySize=auto;html=1;" edge="1" parent="1" source="WOtBp9gE6pbvejZ6KBke-14" target="WOtBp9gE6pbvejZ6KBke-16">
          <mxGeometry relative="1" as="geometry" />
        </mxCell>
        <mxCell id="WOtBp9gE6pbvejZ6KBke-20" value="" style="edgeStyle=orthogonalEdgeStyle;rounded=0;orthogonalLoop=1;jettySize=auto;html=1;" edge="1" parent="1" source="WOtBp9gE6pbvejZ6KBke-14" target="WOtBp9gE6pbvejZ6KBke-19">
          <mxGeometry relative="1" as="geometry" />
        </mxCell>
        <mxCell id="WOtBp9gE6pbvejZ6KBke-14" value="Validation and Checks pass?" style="rhombus;whiteSpace=wrap;html=1;rounded=0;" vertex="1" parent="1">
          <mxGeometry x="373" y="670" width="105" height="80" as="geometry" />
        </mxCell>
        <mxCell id="WOtBp9gE6pbvejZ6KBke-18" value="" style="edgeStyle=orthogonalEdgeStyle;rounded=0;orthogonalLoop=1;jettySize=auto;html=1;entryX=0;entryY=0.5;entryDx=0;entryDy=0;" edge="1" parent="1" source="WOtBp9gE6pbvejZ6KBke-16" target="WOtBp9gE6pbvejZ6KBke-26">
          <mxGeometry relative="1" as="geometry">
            <mxPoint x="365.5" y="420" as="targetPoint" />
            <Array as="points">
              <mxPoint x="240" y="430" />
            </Array>
          </mxGeometry>
        </mxCell>
        <mxCell id="WOtBp9gE6pbvejZ6KBke-16" value="Show Error message" style="whiteSpace=wrap;html=1;rounded=0;" vertex="1" parent="1">
          <mxGeometry x="190" y="680" width="120" height="60" as="geometry" />
        </mxCell>
        <mxCell id="WOtBp9gE6pbvejZ6KBke-22" value="" style="edgeStyle=orthogonalEdgeStyle;rounded=0;orthogonalLoop=1;jettySize=auto;html=1;" edge="1" parent="1" source="WOtBp9gE6pbvejZ6KBke-19" target="WOtBp9gE6pbvejZ6KBke-21">
          <mxGeometry relative="1" as="geometry" />
        </mxCell>
        <mxCell id="WOtBp9gE6pbvejZ6KBke-19" value="Forum is published" style="whiteSpace=wrap;html=1;rounded=0;" vertex="1" parent="1">
          <mxGeometry x="365" y="770" width="120" height="60" as="geometry" />
        </mxCell>
        <mxCell id="WOtBp9gE6pbvejZ6KBke-24" value="" style="edgeStyle=orthogonalEdgeStyle;rounded=0;orthogonalLoop=1;jettySize=auto;html=1;" edge="1" parent="1" source="WOtBp9gE6pbvejZ6KBke-21" target="WOtBp9gE6pbvejZ6KBke-23">
          <mxGeometry relative="1" as="geometry" />
        </mxCell>
        <mxCell id="WOtBp9gE6pbvejZ6KBke-21" value="Emails sent to users" style="whiteSpace=wrap;html=1;rounded=0;" vertex="1" parent="1">
          <mxGeometry x="365.5" y="850" width="120" height="60" as="geometry" />
        </mxCell>
        <mxCell id="WOtBp9gE6pbvejZ6KBke-23" value="End: Users see new forum" style="whiteSpace=wrap;html=1;rounded=0;" vertex="1" parent="1">
          <mxGeometry x="365" y="930" width="120" height="60" as="geometry" />
        </mxCell>
        <mxCell id="WOtBp9gE6pbvejZ6KBke-28" value="" style="edgeStyle=orthogonalEdgeStyle;rounded=0;orthogonalLoop=1;jettySize=auto;html=1;" edge="1" parent="1" source="WOtBp9gE6pbvejZ6KBke-26">
          <mxGeometry relative="1" as="geometry">
            <mxPoint x="425" y="480" as="targetPoint" />
          </mxGeometry>
        </mxCell>
        <mxCell id="WOtBp9gE6pbvejZ6KBke-26" value="Tutor Adds Content: Title, Body, Attachments, polls, etc." style="shape=parallelogram;perimeter=parallelogramPerimeter;whiteSpace=wrap;html=1;fixedSize=1;" vertex="1" parent="1">
          <mxGeometry x="335" y="400" width="180" height="60" as="geometry" />
        </mxCell>
        <mxCell id="WOtBp9gE6pbvejZ6KBke-29" value="Clicks create form&amp;nbsp;" style="rounded=0;whiteSpace=wrap;html=1;" vertex="1" parent="1">
          <mxGeometry x="365" y="110" width="120" height="60" as="geometry" />
        </mxCell>
        <mxCell id="WOtBp9gE6pbvejZ6KBke-30" value="Clicks submit" style="rounded=0;whiteSpace=wrap;html=1;" vertex="1" parent="1">
          <mxGeometry x="365.5" y="480" width="120" height="60" as="geometry" />
        </mxCell>
      </root>
    </mxGraphModel>
  </diagram>
</mxfile>
